<svg xmlns="http://www.w3.org/2000/svg" viewBox="0 0 100 100">
  <rect width="100" height="100" fill="#DE2910"/>
  <g fill="#FFDE00">
    <polygon points="15,15 26,40 0,25 30,25 4,40"/>
    <polygon points="40,10 43,17 50,17 45,22 47,30 40,25 33,30 35,22 30,17 37,17"/>
    <polygon points="60,15 63,22 70,22 65,27 67,35 60,30 53,35 55,27 50,22 57,22"/>
    <polygon points="60,45 63,52 70,52 65,57 67,65 60,60 53,65 55,57 50,52 57,52"/>
    <polygon points="40,50 43,57 50,57 45,62 47,70 40,65 33,70 35,62 30,57 37,57"/>
  </g>
</svg> 