<svg xmlns="http://www.w3.org/2000/svg" viewBox="0 0 100 100">
  <rect width="100" height="100" fill="#B22234"/>
  <path d="M0,8.33h100 M0,16.67h100 M0,25h100 M0,33.33h100 M0,41.67h100 M0,50h100 M0,58.33h100 M0,66.67h100 M0,75h100 M0,83.33h100 M0,91.67h100" stroke="#fff" stroke-width="6.25"/>
  <rect width="50" height="54.17" fill="#3C3B6E"/>
  <g fill="#fff">
    <circle cx="8.33" cy="8.33" r="3.33"/>
    <circle cx="20.83" cy="8.33" r="3.33"/>
    <circle cx="33.33" cy="8.33" r="3.33"/>
    <circle cx="8.33" cy="20.83" r="3.33"/>
    <circle cx="20.83" cy="20.83" r="3.33"/>
    <circle cx="33.33" cy="20.83" r="3.33"/>
    <circle cx="8.33" cy="33.33" r="3.33"/>
    <circle cx="20.83" cy="33.33" r="3.33"/>
    <circle cx="33.33" cy="33.33" r="3.33"/>
    <circle cx="8.33" cy="45.83" r="3.33"/>
    <circle cx="20.83" cy="45.83" r="3.33"/>
    <circle cx="33.33" cy="45.83" r="3.33"/>
  </g>
</svg> 